<mxfile host="app.diagrams.net" modified="2022-06-06T13:41:08.018Z" agent="5.0 (Windows NT 10.0; Win64; x64) AppleWebKit/537.36 (KHTML, like Gecko) Chrome/96.0.4664.110 Safari/537.36" etag="Zg4rVHl7hZ_6QfuUUMEQ" version="19.0.0" type="github">
  <diagram id="iYoIpUCzcXzduvzQwFd_" name="Page-1">
    <mxGraphModel dx="1422" dy="794" grid="1" gridSize="10" guides="1" tooltips="1" connect="1" arrows="1" fold="1" page="1" pageScale="1" pageWidth="850" pageHeight="1100" math="0" shadow="0">
      <root>
        <mxCell id="0" />
        <mxCell id="1" parent="0" />
        <mxCell id="SozkesyEJv-2taJQF0Wl-1" value="Cab Application&lt;br&gt;(Root Tenant)&lt;br&gt;&lt;br&gt;Uber" style="rounded=1;whiteSpace=wrap;html=1;" vertex="1" parent="1">
          <mxGeometry x="230" y="130" width="160" height="120" as="geometry" />
        </mxCell>
      </root>
    </mxGraphModel>
  </diagram>
</mxfile>
